M48
;Layer_Color=9474304
;FILE_FORMAT=2:4
INCH,TZ
;TYPE=PLATED
T1F00S00C0.0118
T2F00S00C0.0197
T3F00S00C0.0256
T4F00S00C0.0276
T5F00S00C0.0299
T6F00S00C0.0354
T7F00S00C0.0394
T8F00S00C0.1575
%
T01
X7300Y6910
X10410Y7530
X17120Y9780
X19110Y9460
X22330Y7600
X37510Y5220
X42790Y9280
X65360Y8860
X69550Y11880
T02
X22728Y6693
X23228
X23728
Y11024
X23228
X22728
X37689
X38189
X38689
Y6693
X38189
X37689
X52650
X53150
X53650
Y11024
X53150
X52650
X67610
X68110
X68610
Y6693
X68110
X67610
X82571
X83071
X83571
Y11024
X83071
X82571
X97531
X98032
X98532
Y6693
X98032
X97531
X112295
X112795
X113295
Y11024
X112795
X112295
X127453
X127953
X128453
Y6693
X127953
X127453
T03
X9449Y2236
T04
X3346Y984
X4346
X7268Y787
X8268
X12402Y6496
X13386
X14370
Y9449
Y10433
X13386
X12402
Y9449
X13386
X4150
X3150
X20866Y6890
Y5890
X25394Y10811
Y11811
X40354Y11827
Y10827
X35827Y6890
Y5890
X50787
Y6890
X55315Y10811
Y11811
X70276
Y10811
X65748Y6906
Y5906
X80906
Y6906
X85236Y10827
Y11827
X100197
Y10827
X95866Y6890
Y5890
X110630Y5906
Y6906
X114961Y10811
Y11811
X130118
Y10811
X125787Y6890
Y5890
T05
X16339Y8858
X21850
X24606
X30118
X31299
X36811
X39567
X45079
X46260
X51772
X54528
X60039
X61220
X66732
X69488
X75000
X76181
X81693
X84449
X89961
X91142
X96654
X99409
X104921
X106102
X111614
X114370
X119882
X121063
X126575
X129331
X134843
T06
X6449Y2236
Y3236
Y4236
Y5236
Y6236
Y7236
Y8236
Y9236
Y10236
Y11236
Y12236
Y13236
Y14236
Y15236
X9449
Y14236
Y13236
Y12236
Y11236
Y10236
Y9236
Y8236
Y7236
Y6236
Y5236
Y4236
Y3236
T07
X2937Y3118
X3937
Y4118
Y5118
Y6118
Y7118
X2937
Y6118
Y5118
Y4118
X3150Y11583
X4150
Y12583
Y13583
Y14583
Y15583
X3150
Y14583
Y13583
Y12583
T08
X12992Y2756
Y14961
X138189
Y2756
M30
