G04*
G04 #@! TF.GenerationSoftware,Altium Limited,Altium Designer,21.2.2 (38)*
G04*
G04 Layer_Color=65535*
%FSLAX25Y25*%
%MOIN*%
G70*
G04*
G04 #@! TF.SameCoordinates,B0292683-A3BF-4B68-AAF6-4A0ED23DE7E7*
G04*
G04*
G04 #@! TF.FilePolarity,Positive*
G04*
G01*
G75*
%ADD10C,0.00787*%
%ADD11C,0.01000*%
D10*
X41496Y88583D02*
X42468Y88663D01*
X43413Y88903D01*
X44307Y89294D01*
X45123Y89828D01*
X45841Y90488D01*
X46440Y91258D01*
X46904Y92116D01*
X47221Y93038D01*
X47381Y94001D01*
Y94976D01*
X47221Y95938D01*
X46904Y96860D01*
X46440Y97718D01*
X45841Y98488D01*
X45123Y99148D01*
X44307Y99682D01*
X43413Y100074D01*
X42468Y100313D01*
X41496Y100394D01*
X31496D02*
X30524Y100313D01*
X29578Y100074D01*
X28685Y99682D01*
X27869Y99148D01*
X27151Y98488D01*
X26552Y97718D01*
X26088Y96860D01*
X25771Y95938D01*
X25611Y94976D01*
Y94000D01*
X25771Y93038D01*
X26088Y92116D01*
X26552Y91258D01*
X27151Y90488D01*
X27869Y89828D01*
X28685Y89294D01*
X29578Y88903D01*
X30524Y88663D01*
X31496Y88583D01*
X77992Y157362D02*
X78182Y156405D01*
X78724Y155594D01*
X79535Y155052D01*
X80492Y154862D01*
X81449Y155052D01*
X82260Y155594D01*
X82802Y156405D01*
X82992Y157362D01*
X82677Y1969D02*
X83649Y2049D01*
X84595Y2289D01*
X85488Y2680D01*
X86304Y3214D01*
X87022Y3874D01*
X87621Y4644D01*
X88085Y5502D01*
X88402Y6424D01*
X88563Y7386D01*
Y8362D01*
X88402Y9324D01*
X88085Y10246D01*
X87621Y11104D01*
X87022Y11874D01*
X86304Y12534D01*
X85488Y13068D01*
X84595Y13460D01*
X83649Y13699D01*
X82677Y13780D01*
X72677D02*
X71705Y13699D01*
X70760Y13460D01*
X69867Y13068D01*
X69050Y12534D01*
X68332Y11874D01*
X67733Y11104D01*
X67269Y10246D01*
X66952Y9324D01*
X66792Y8362D01*
Y7386D01*
X66952Y6424D01*
X67269Y5502D01*
X67733Y4644D01*
X68332Y3874D01*
X69050Y3214D01*
X69866Y2680D01*
X70760Y2289D01*
X71705Y2049D01*
X72677Y1969D01*
X259842Y118110D02*
X259762Y119082D01*
X259523Y120028D01*
X259131Y120921D01*
X258597Y121738D01*
X257937Y122455D01*
X257167Y123054D01*
X256309Y123518D01*
X255387Y123835D01*
X254425Y123996D01*
X253449D01*
X252487Y123835D01*
X251565Y123518D01*
X250707Y123054D01*
X249937Y122455D01*
X249277Y121738D01*
X248743Y120921D01*
X248352Y120028D01*
X248112Y119082D01*
X248031Y118110D01*
Y108110D02*
X248112Y107138D01*
X248352Y106193D01*
X248743Y105299D01*
X249277Y104483D01*
X249937Y103765D01*
X250707Y103166D01*
X251565Y102702D01*
X252487Y102385D01*
X253449Y102225D01*
X254425D01*
X255387Y102385D01*
X256309Y102702D01*
X257167Y103166D01*
X257937Y103765D01*
X258597Y104483D01*
X259131Y105299D01*
X259523Y106193D01*
X259762Y107138D01*
X259842Y108110D01*
X352362Y58898D02*
X352443Y57926D01*
X352682Y56980D01*
X353074Y56087D01*
X353607Y55270D01*
X354268Y54553D01*
X355038Y53954D01*
X355895Y53490D01*
X356818Y53173D01*
X357780Y53012D01*
X358755D01*
X359717Y53173D01*
X360640Y53490D01*
X361498Y53954D01*
X362267Y54553D01*
X362928Y55270D01*
X363461Y56087D01*
X363853Y56980D01*
X364093Y57926D01*
X364173Y58898D01*
Y68898D02*
X364093Y69870D01*
X363853Y70815D01*
X363461Y71708D01*
X362928Y72525D01*
X362267Y73242D01*
X361498Y73842D01*
X360640Y74306D01*
X359717Y74622D01*
X358755Y74783D01*
X357780D01*
X356818Y74622D01*
X355895Y74306D01*
X355038Y73842D01*
X354268Y73242D01*
X353607Y72525D01*
X353074Y71708D01*
X352682Y70815D01*
X352443Y69870D01*
X352362Y68898D01*
X559055Y118110D02*
X558975Y119082D01*
X558735Y120028D01*
X558343Y120921D01*
X557810Y121738D01*
X557149Y122455D01*
X556380Y123054D01*
X555522Y123518D01*
X554599Y123835D01*
X553637Y123996D01*
X552662D01*
X551700Y123835D01*
X550777Y123518D01*
X549920Y123054D01*
X549150Y122455D01*
X548489Y121738D01*
X547956Y120921D01*
X547564Y120028D01*
X547325Y119082D01*
X547244Y118110D01*
Y108110D02*
X547325Y107138D01*
X547564Y106193D01*
X547956Y105299D01*
X548489Y104483D01*
X549150Y103765D01*
X549920Y103166D01*
X550777Y102702D01*
X551700Y102385D01*
X552662Y102225D01*
X553637D01*
X554599Y102385D01*
X555522Y102702D01*
X556380Y103166D01*
X557149Y103765D01*
X557810Y104483D01*
X558343Y105299D01*
X558735Y106193D01*
X558975Y107138D01*
X559055Y108110D01*
X651575Y59055D02*
X651655Y58083D01*
X651895Y57138D01*
X652287Y56244D01*
X652820Y55428D01*
X653481Y54710D01*
X654250Y54111D01*
X655108Y53647D01*
X656031Y53330D01*
X656993Y53170D01*
X657968D01*
X658930Y53330D01*
X659853Y53647D01*
X660710Y54111D01*
X661480Y54710D01*
X662141Y55428D01*
X662674Y56244D01*
X663066Y57138D01*
X663305Y58083D01*
X663386Y59055D01*
Y69055D02*
X663305Y70027D01*
X663066Y70973D01*
X662674Y71866D01*
X662141Y72682D01*
X661480Y73400D01*
X660710Y73999D01*
X659853Y74463D01*
X658930Y74780D01*
X657968Y74941D01*
X656993D01*
X656031Y74780D01*
X655108Y74463D01*
X654250Y73999D01*
X653481Y73400D01*
X652820Y72682D01*
X652287Y71866D01*
X651895Y70973D01*
X651655Y70027D01*
X651575Y69055D01*
X858268Y118268D02*
X858187Y119240D01*
X857948Y120185D01*
X857556Y121078D01*
X857022Y121895D01*
X856362Y122613D01*
X855592Y123212D01*
X854734Y123676D01*
X853812Y123993D01*
X852850Y124153D01*
X851875D01*
X850912Y123993D01*
X849990Y123676D01*
X849132Y123212D01*
X848363Y122613D01*
X847702Y121895D01*
X847169Y121078D01*
X846777Y120185D01*
X846537Y119240D01*
X846457Y118268D01*
Y108268D02*
X846537Y107296D01*
X846777Y106350D01*
X847169Y105457D01*
X847702Y104640D01*
X848363Y103923D01*
X849132Y103324D01*
X849990Y102860D01*
X850912Y102543D01*
X851875Y102382D01*
X852850D01*
X853812Y102543D01*
X854734Y102860D01*
X855592Y103324D01*
X856362Y103923D01*
X857022Y104640D01*
X857556Y105457D01*
X857948Y106350D01*
X858187Y107296D01*
X858268Y108268D01*
X952756Y58898D02*
X952836Y57926D01*
X953076Y56980D01*
X953468Y56087D01*
X954001Y55270D01*
X954662Y54553D01*
X955431Y53954D01*
X956289Y53490D01*
X957212Y53173D01*
X958174Y53012D01*
X959149D01*
X960111Y53173D01*
X961034Y53490D01*
X961891Y53954D01*
X962661Y54553D01*
X963322Y55270D01*
X963855Y56087D01*
X964247Y56980D01*
X964486Y57926D01*
X964567Y58898D01*
Y68898D02*
X964486Y69870D01*
X964247Y70815D01*
X963855Y71708D01*
X963322Y72525D01*
X962661Y73242D01*
X961891Y73842D01*
X961034Y74306D01*
X960111Y74622D01*
X959149Y74783D01*
X958174D01*
X957212Y74622D01*
X956289Y74306D01*
X955431Y73842D01*
X954662Y73242D01*
X954001Y72525D01*
X953468Y71708D01*
X953076Y70815D01*
X952836Y69870D01*
X952756Y68898D01*
X1143701Y108110D02*
X1143781Y107138D01*
X1144021Y106193D01*
X1144413Y105299D01*
X1144946Y104483D01*
X1145607Y103765D01*
X1146376Y103166D01*
X1147234Y102702D01*
X1148157Y102385D01*
X1149119Y102225D01*
X1150094D01*
X1151056Y102385D01*
X1151978Y102702D01*
X1152836Y103166D01*
X1153606Y103765D01*
X1154267Y104483D01*
X1154800Y105299D01*
X1155192Y106193D01*
X1155431Y107138D01*
X1155512Y108110D01*
Y118110D02*
X1155431Y119082D01*
X1155192Y120028D01*
X1154800Y120921D01*
X1154267Y121738D01*
X1153606Y122455D01*
X1152836Y123054D01*
X1151978Y123518D01*
X1151056Y123835D01*
X1150094Y123996D01*
X1149119D01*
X1148157Y123835D01*
X1147234Y123518D01*
X1146376Y123054D01*
X1145607Y122455D01*
X1144946Y121738D01*
X1144413Y120921D01*
X1144021Y120028D01*
X1143781Y119082D01*
X1143701Y118110D01*
X1263780Y68898D02*
X1263699Y69870D01*
X1263459Y70815D01*
X1263068Y71708D01*
X1262534Y72525D01*
X1261874Y73242D01*
X1261104Y73842D01*
X1260246Y74306D01*
X1259324Y74622D01*
X1258362Y74783D01*
X1257386D01*
X1256424Y74622D01*
X1255502Y74306D01*
X1254644Y73842D01*
X1253874Y73242D01*
X1253214Y72525D01*
X1252680Y71708D01*
X1252289Y70815D01*
X1252049Y69870D01*
X1251968Y68898D01*
Y58898D02*
X1252049Y57926D01*
X1252289Y56980D01*
X1252680Y56087D01*
X1253214Y55270D01*
X1253874Y54553D01*
X1254644Y53954D01*
X1255502Y53490D01*
X1256424Y53173D01*
X1257386Y53012D01*
X1258362D01*
X1259324Y53173D01*
X1260246Y53490D01*
X1261104Y53954D01*
X1261874Y54553D01*
X1262534Y55270D01*
X1263068Y56087D01*
X1263459Y56980D01*
X1263699Y57926D01*
X1263780Y58898D01*
X214567Y68898D02*
X214486Y69870D01*
X214247Y70815D01*
X213855Y71708D01*
X213322Y72525D01*
X212661Y73242D01*
X211891Y73842D01*
X211034Y74306D01*
X210111Y74622D01*
X209149Y74783D01*
X208174D01*
X207212Y74622D01*
X206289Y74306D01*
X205431Y73842D01*
X204662Y73242D01*
X204001Y72525D01*
X203468Y71708D01*
X203076Y70815D01*
X202836Y69870D01*
X202756Y68898D01*
Y58898D02*
X202836Y57926D01*
X203076Y56980D01*
X203468Y56087D01*
X204001Y55270D01*
X204662Y54553D01*
X205431Y53954D01*
X206289Y53490D01*
X207212Y53173D01*
X208174Y53012D01*
X209149D01*
X210111Y53173D01*
X211034Y53490D01*
X211891Y53954D01*
X212661Y54553D01*
X213322Y55270D01*
X213855Y56087D01*
X214247Y56980D01*
X214486Y57926D01*
X214567Y58898D01*
X397638Y108268D02*
X397718Y107296D01*
X397958Y106350D01*
X398350Y105457D01*
X398883Y104640D01*
X399544Y103923D01*
X400313Y103324D01*
X401171Y102860D01*
X402094Y102543D01*
X403056Y102382D01*
X404031D01*
X404993Y102543D01*
X405915Y102860D01*
X406773Y103324D01*
X407543Y103923D01*
X408204Y104640D01*
X408737Y105457D01*
X409129Y106350D01*
X409368Y107296D01*
X409449Y108268D01*
Y118268D02*
X409368Y119240D01*
X409129Y120185D01*
X408737Y121078D01*
X408204Y121895D01*
X407543Y122613D01*
X406773Y123212D01*
X405915Y123676D01*
X404993Y123993D01*
X404031Y124153D01*
X403056D01*
X402094Y123993D01*
X401171Y123676D01*
X400313Y123212D01*
X399544Y122613D01*
X398883Y121895D01*
X398350Y121078D01*
X397958Y120185D01*
X397718Y119240D01*
X397638Y118268D01*
X513779Y68898D02*
X513699Y69870D01*
X513460Y70815D01*
X513068Y71708D01*
X512534Y72525D01*
X511874Y73242D01*
X511104Y73842D01*
X510246Y74306D01*
X509324Y74622D01*
X508362Y74783D01*
X507386D01*
X506424Y74622D01*
X505502Y74306D01*
X504644Y73842D01*
X503874Y73242D01*
X503214Y72525D01*
X502680Y71708D01*
X502288Y70815D01*
X502049Y69870D01*
X501968Y68898D01*
Y58898D02*
X502049Y57926D01*
X502288Y56980D01*
X502680Y56087D01*
X503214Y55270D01*
X503874Y54553D01*
X504644Y53954D01*
X505502Y53490D01*
X506424Y53173D01*
X507386Y53012D01*
X508362D01*
X509324Y53173D01*
X510246Y53490D01*
X511104Y53954D01*
X511874Y54553D01*
X512534Y55270D01*
X513068Y56087D01*
X513460Y56980D01*
X513699Y57926D01*
X513779Y58898D01*
X696850Y108110D02*
X696931Y107138D01*
X697170Y106193D01*
X697562Y105299D01*
X698096Y104483D01*
X698756Y103765D01*
X699526Y103166D01*
X700384Y102702D01*
X701306Y102385D01*
X702268Y102225D01*
X703244D01*
X704206Y102385D01*
X705128Y102702D01*
X705986Y103166D01*
X706756Y103765D01*
X707416Y104483D01*
X707950Y105299D01*
X708341Y106193D01*
X708581Y107138D01*
X708661Y108110D01*
Y118110D02*
X708581Y119082D01*
X708341Y120028D01*
X707950Y120921D01*
X707416Y121738D01*
X706756Y122455D01*
X705986Y123054D01*
X705128Y123518D01*
X704206Y123835D01*
X703244Y123996D01*
X702268D01*
X701306Y123835D01*
X700384Y123518D01*
X699526Y123054D01*
X698756Y122455D01*
X698096Y121738D01*
X697562Y120921D01*
X697170Y120028D01*
X696931Y119082D01*
X696850Y118110D01*
X814961Y69055D02*
X814880Y70027D01*
X814641Y70973D01*
X814249Y71866D01*
X813715Y72682D01*
X813055Y73400D01*
X812285Y73999D01*
X811427Y74463D01*
X810505Y74780D01*
X809543Y74941D01*
X808568D01*
X807605Y74780D01*
X806683Y74463D01*
X805825Y73999D01*
X805055Y73400D01*
X804395Y72682D01*
X803861Y71866D01*
X803470Y70973D01*
X803230Y70027D01*
X803150Y69055D01*
Y59055D02*
X803230Y58083D01*
X803470Y57138D01*
X803861Y56244D01*
X804395Y55428D01*
X805055Y54710D01*
X805825Y54111D01*
X806683Y53647D01*
X807605Y53330D01*
X808567Y53170D01*
X809543D01*
X810505Y53330D01*
X811427Y53647D01*
X812285Y54111D01*
X813055Y54710D01*
X813715Y55428D01*
X814249Y56244D01*
X814641Y57138D01*
X814880Y58083D01*
X814961Y59055D01*
X996063Y108268D02*
X996144Y107296D01*
X996383Y106350D01*
X996775Y105457D01*
X997308Y104640D01*
X997969Y103923D01*
X998738Y103324D01*
X999596Y102860D01*
X1000519Y102543D01*
X1001481Y102382D01*
X1002456D01*
X1003418Y102543D01*
X1004341Y102860D01*
X1005198Y103324D01*
X1005968Y103923D01*
X1006629Y104640D01*
X1007162Y105457D01*
X1007554Y106350D01*
X1007794Y107296D01*
X1007874Y108268D01*
Y118268D02*
X1007794Y119240D01*
X1007554Y120185D01*
X1007162Y121078D01*
X1006629Y121895D01*
X1005968Y122613D01*
X1005198Y123212D01*
X1004341Y123676D01*
X1003418Y123993D01*
X1002456Y124153D01*
X1001481D01*
X1000519Y123993D01*
X999596Y123676D01*
X998738Y123212D01*
X997969Y122613D01*
X997308Y121895D01*
X996775Y121078D01*
X996383Y120185D01*
X996144Y119240D01*
X996063Y118268D01*
X1100394Y59055D02*
X1100474Y58083D01*
X1100714Y57138D01*
X1101105Y56244D01*
X1101639Y55428D01*
X1102299Y54710D01*
X1103069Y54111D01*
X1103927Y53647D01*
X1104850Y53330D01*
X1105812Y53170D01*
X1106787D01*
X1107749Y53330D01*
X1108671Y53647D01*
X1109529Y54111D01*
X1110299Y54710D01*
X1110960Y55428D01*
X1111493Y56244D01*
X1111885Y57138D01*
X1112124Y58083D01*
X1112205Y59055D01*
Y69055D02*
X1112124Y70027D01*
X1111885Y70973D01*
X1111493Y71866D01*
X1110960Y72682D01*
X1110299Y73400D01*
X1109529Y73999D01*
X1108671Y74463D01*
X1107749Y74780D01*
X1106787Y74941D01*
X1105812D01*
X1104850Y74780D01*
X1103927Y74463D01*
X1103069Y73999D01*
X1102299Y73400D01*
X1101639Y72682D01*
X1101105Y71866D01*
X1100714Y70973D01*
X1100474Y70027D01*
X1100394Y69055D01*
X1295276Y108110D02*
X1295356Y107138D01*
X1295596Y106193D01*
X1295987Y105299D01*
X1296521Y104483D01*
X1297181Y103765D01*
X1297951Y103166D01*
X1298809Y102702D01*
X1299731Y102385D01*
X1300693Y102225D01*
X1301669D01*
X1302631Y102385D01*
X1303553Y102702D01*
X1304411Y103166D01*
X1305181Y103765D01*
X1305841Y104483D01*
X1306375Y105299D01*
X1306767Y106193D01*
X1307006Y107138D01*
X1307087Y108110D01*
Y118110D02*
X1307006Y119082D01*
X1306767Y120028D01*
X1306375Y120921D01*
X1305841Y121738D01*
X1305181Y122455D01*
X1304411Y123054D01*
X1303553Y123518D01*
X1302631Y123835D01*
X1301669Y123996D01*
X1300693D01*
X1299731Y123835D01*
X1298809Y123518D01*
X1297951Y123054D01*
X1297181Y122455D01*
X1296521Y121738D01*
X1295987Y120921D01*
X1295596Y120028D01*
X1295356Y119082D01*
X1295276Y118110D01*
X33465Y15748D02*
X32493Y15667D01*
X31547Y15428D01*
X30654Y15036D01*
X29837Y14503D01*
X29120Y13842D01*
X28521Y13072D01*
X28056Y12215D01*
X27740Y11292D01*
X27579Y10330D01*
Y9355D01*
X27740Y8393D01*
X28056Y7470D01*
X28521Y6612D01*
X29120Y5843D01*
X29837Y5182D01*
X30654Y4649D01*
X31547Y4257D01*
X32493Y4018D01*
X33465Y3937D01*
X43464D02*
X44436Y4018D01*
X45382Y4257D01*
X46275Y4649D01*
X47092Y5182D01*
X47809Y5843D01*
X48408Y6612D01*
X48873Y7470D01*
X49189Y8393D01*
X49350Y9355D01*
Y10330D01*
X49189Y11292D01*
X48873Y12215D01*
X48408Y13073D01*
X47809Y13842D01*
X47092Y14503D01*
X46275Y15036D01*
X45382Y15428D01*
X44436Y15667D01*
X43464Y15748D01*
X43839Y26181D02*
Y76181D01*
X24843Y26181D02*
X43839D01*
X24843D02*
Y76181D01*
X36870D01*
X31870D02*
X43839D01*
X31496Y88583D02*
X41496D01*
X31496Y100394D02*
X41496D01*
X45965Y110827D02*
Y160827D01*
X26969Y110827D02*
X45965D01*
X26969D02*
Y160827D01*
X38996D01*
X33996D02*
X45965D01*
X72697Y17362D02*
Y157362D01*
Y17362D02*
X88110D01*
Y157362D01*
X82992D02*
X88110D01*
X72697D02*
X77992D01*
X72677Y1969D02*
X82677D01*
X72677Y13780D02*
X82677D01*
X250000Y78740D02*
Y98425D01*
X297244D01*
Y88583D02*
Y98425D01*
X250000Y78740D02*
X297244D01*
Y88583D01*
X446850Y78740D02*
Y88583D01*
X399606Y78740D02*
X446850D01*
Y88583D02*
Y98425D01*
X399606D02*
X446850D01*
X399606Y78740D02*
Y98425D01*
X549213Y78740D02*
Y98425D01*
X596457D01*
Y88583D02*
Y98425D01*
X549213Y78740D02*
X596457D01*
Y88583D01*
X746063Y78740D02*
Y88583D01*
X698819Y78740D02*
X746063D01*
Y88583D02*
Y98425D01*
X698819D02*
X746063D01*
X698819Y78740D02*
Y98425D01*
X848425Y78740D02*
Y98425D01*
X895669D01*
Y88583D02*
Y98425D01*
X848425Y78740D02*
X895669D01*
Y88583D01*
X1194882Y78740D02*
Y88583D01*
X1147638Y78740D02*
X1194882D01*
Y88583D02*
Y98425D01*
X1147638D02*
X1194882D01*
X1147638Y78740D02*
Y98425D01*
X1297244Y78740D02*
Y98425D01*
X1344488D01*
Y88583D02*
Y98425D01*
X1297244Y78740D02*
X1344488D01*
Y88583D01*
X214567Y78740D02*
Y88583D01*
X167323Y78740D02*
X214567D01*
Y88583D02*
Y98425D01*
X167323D02*
X214567D01*
X167323Y78740D02*
Y98425D01*
X316929Y78740D02*
Y98425D01*
X364173D01*
Y88583D02*
Y98425D01*
X316929Y78740D02*
X364173D01*
Y88583D01*
X513780Y78740D02*
Y88583D01*
X466535Y78740D02*
X513780D01*
Y88583D02*
Y98425D01*
X466535D02*
X513780D01*
X466535Y78740D02*
Y98425D01*
X616142Y78740D02*
Y98425D01*
X663386D01*
Y88583D02*
Y98425D01*
X616142Y78740D02*
X663386D01*
Y88583D01*
X812992Y78740D02*
Y88583D01*
X765748Y78740D02*
X812992D01*
Y88583D02*
Y98425D01*
X765748D02*
X812992D01*
X765748Y78740D02*
Y98425D01*
X915354Y78740D02*
Y98425D01*
X962598D01*
Y88583D02*
Y98425D01*
X915354Y78740D02*
X962598D01*
Y88583D01*
X1112205Y78740D02*
Y88583D01*
X1064961Y78740D02*
X1112205D01*
Y88583D02*
Y98425D01*
X1064961D02*
X1112205D01*
X1064961Y78740D02*
Y98425D01*
X1214567Y78740D02*
Y98425D01*
X1261811D01*
Y88583D02*
Y98425D01*
X1214567Y78740D02*
X1261811D01*
Y88583D01*
X1045276Y78740D02*
Y88583D01*
X998032Y78740D02*
X1045276D01*
Y88583D02*
Y98425D01*
X998032D02*
X1045276D01*
X998032Y78740D02*
Y98425D01*
X259843Y108110D02*
Y118110D01*
X248032Y108110D02*
Y118110D01*
X352362Y58898D02*
Y68898D01*
X364173Y58898D02*
Y68898D01*
X559055Y108110D02*
Y118110D01*
X547244Y108110D02*
Y118110D01*
X651575Y59055D02*
Y69055D01*
X663386Y59055D02*
Y69055D01*
X858268Y108268D02*
Y118268D01*
X846457Y108268D02*
Y118268D01*
X952756Y58898D02*
Y68898D01*
X964567Y58898D02*
Y68898D01*
X1143701Y108110D02*
Y118110D01*
X1155512Y108110D02*
Y118110D01*
X1263780Y58898D02*
Y68898D01*
X1251969Y58898D02*
Y68898D01*
X214567Y58898D02*
Y68898D01*
X202756Y58898D02*
Y68898D01*
X397638Y108268D02*
Y118268D01*
X409449Y108268D02*
Y118268D01*
X513780Y58898D02*
Y68898D01*
X501969Y58898D02*
Y68898D01*
X696850Y108110D02*
Y118110D01*
X708661Y108110D02*
Y118110D01*
X814961Y59055D02*
Y69055D01*
X803150Y59055D02*
Y69055D01*
X996063Y108268D02*
Y118268D01*
X1007874Y108268D02*
Y118268D01*
X1100394Y59055D02*
Y69055D01*
X1112205Y59055D02*
Y69055D01*
X1295276Y108110D02*
Y118110D01*
X1307087Y108110D02*
Y118110D01*
X33465Y15748D02*
X43465D01*
X33465Y3937D02*
X43465D01*
X119094Y61024D02*
X148622D01*
X119094D02*
Y68898D01*
X148622D01*
Y61024D02*
Y68898D01*
Y61024D02*
Y62500D01*
Y90551D02*
Y101870D01*
Y96949D02*
Y108268D01*
X119094Y90551D02*
Y108268D01*
Y90551D02*
X148622D01*
X119094Y108268D02*
X148622D01*
D11*
X223346Y106299D02*
Y114173D01*
Y106299D02*
X241063D01*
Y114173D01*
X223346D02*
X241063D01*
X373110Y62992D02*
X390827D01*
X373110D02*
Y70866D01*
X390827D01*
Y62992D02*
Y70866D01*
X522559Y106299D02*
Y114173D01*
Y106299D02*
X540276D01*
Y114173D01*
X522559D02*
X540276D01*
X672323Y62992D02*
X690039D01*
X672323D02*
Y70866D01*
X690039D01*
Y62992D02*
Y70866D01*
X821772Y106299D02*
Y114173D01*
Y106299D02*
X839488D01*
Y114173D01*
X821772D02*
X839488D01*
X971535Y62992D02*
X989252D01*
X971535D02*
Y70866D01*
X989252D01*
Y62992D02*
Y70866D01*
X1119016Y106299D02*
Y114173D01*
Y106299D02*
X1136732D01*
Y114173D01*
X1119016D02*
X1136732D01*
X1270748Y62992D02*
X1288465D01*
X1270748D02*
Y70866D01*
X1288465D01*
Y62992D02*
Y70866D01*
X241220Y62992D02*
Y70866D01*
X223504D02*
X241220D01*
X223504Y62992D02*
Y70866D01*
Y62992D02*
X241220D01*
X372953Y114173D02*
X390669D01*
Y106299D02*
Y114173D01*
X372953Y106299D02*
X390669D01*
X372953D02*
Y114173D01*
X540433Y62992D02*
Y70866D01*
X522717D02*
X540433D01*
X522717Y62992D02*
Y70866D01*
Y62992D02*
X540433D01*
X672165Y114173D02*
X689882D01*
Y106299D02*
Y114173D01*
X672165Y106299D02*
X689882D01*
X672165D02*
Y114173D01*
X839646Y62992D02*
Y70866D01*
X821929D02*
X839646D01*
X821929Y62992D02*
Y70866D01*
Y62992D02*
X839646D01*
X971378Y114173D02*
X989094D01*
Y106299D02*
Y114173D01*
X971378Y106299D02*
X989094D01*
X971378D02*
Y114173D01*
X1136890Y62992D02*
Y70866D01*
X1119173D02*
X1136890D01*
X1119173Y62992D02*
Y70866D01*
Y62992D02*
X1136890D01*
X1270591Y114173D02*
X1288307D01*
Y106299D02*
Y114173D01*
X1270591Y106299D02*
X1288307D01*
X1270591D02*
Y114173D01*
X157480Y127953D02*
Y177165D01*
X0D02*
X157480D01*
X0Y0D02*
Y177165D01*
Y0D02*
X157480D01*
Y49213D01*
X1354331D01*
Y0D02*
Y49213D01*
Y0D02*
X1409449D01*
Y177165D01*
X1354331D02*
X1409449D01*
X1354331Y127953D02*
Y177165D01*
X157480Y127953D02*
X1354331D01*
X126984Y117234D02*
Y113236D01*
X128984Y111236D01*
X130983Y113236D01*
Y117234D01*
X136981Y116235D02*
X135981Y117234D01*
X133982D01*
X132982Y116235D01*
Y112236D01*
X133982Y111236D01*
X135981D01*
X136981Y112236D01*
X142979Y116235D02*
X141979Y117234D01*
X139980D01*
X138980Y116235D01*
Y112236D01*
X139980Y111236D01*
X141979D01*
X142979Y112236D01*
X2876Y83708D02*
Y77710D01*
Y80709D01*
X6874D01*
Y83708D01*
Y77710D01*
X12872D02*
X8874D01*
X12872Y81708D01*
Y82708D01*
X11873Y83708D01*
X9873D01*
X8874Y82708D01*
X6905Y34557D02*
X8905D01*
X7905D01*
Y28559D01*
X6905D01*
X8905D01*
X11904D02*
Y34557D01*
X15903Y28559D01*
Y34557D01*
X17902D02*
X21901D01*
X19901D01*
Y28559D01*
X16810Y43400D02*
X15810Y44400D01*
X13811D01*
X12811Y43400D01*
Y42400D01*
X13811Y41401D01*
X15810D01*
X16810Y40401D01*
Y39401D01*
X15810Y38402D01*
X13811D01*
X12811Y39401D01*
X21808Y44400D02*
X19809D01*
X18809Y43400D01*
Y39401D01*
X19809Y38402D01*
X21808D01*
X22808Y39401D01*
Y43400D01*
X21808Y44400D01*
X36433Y24715D02*
Y20716D01*
X38432Y18717D01*
X40432Y20716D01*
Y24715D01*
X46430Y22715D02*
X43431D01*
X42431Y21716D01*
Y19716D01*
X43431Y18717D01*
X46430D01*
X52428Y22715D02*
X49429D01*
X48429Y21716D01*
Y19716D01*
X49429Y18717D01*
X52428D01*
X47151Y36810D02*
X46152Y35810D01*
Y33811D01*
X47151Y32811D01*
X51150D01*
X52150Y33811D01*
Y35810D01*
X51150Y36810D01*
X49151D01*
Y34810D01*
X52150Y38809D02*
X46152D01*
X52150Y42808D01*
X46152D01*
Y44807D02*
X52150D01*
Y47806D01*
X51150Y48806D01*
X47151D01*
X46152Y47806D01*
Y44807D01*
X16810Y72927D02*
X15810Y73927D01*
X13811D01*
X12811Y72927D01*
Y68929D01*
X13811Y67929D01*
X15810D01*
X16810Y68929D01*
X22808Y72927D02*
X21808Y73927D01*
X19809D01*
X18809Y72927D01*
Y71928D01*
X19809Y70928D01*
X21808D01*
X22808Y69928D01*
Y68929D01*
X21808Y67929D01*
X19809D01*
X18809Y68929D01*
X10904Y63085D02*
X9905Y64085D01*
X7905D01*
X6905Y63085D01*
Y62085D01*
X7905Y61086D01*
X9905D01*
X10904Y60086D01*
Y59086D01*
X9905Y58087D01*
X7905D01*
X6905Y59086D01*
X16902Y63085D02*
X15903Y64085D01*
X13903D01*
X12904Y63085D01*
Y59086D01*
X13903Y58087D01*
X15903D01*
X16902Y59086D01*
X18902Y64085D02*
Y58087D01*
Y60086D01*
X22900Y64085D01*
X19901Y61086D01*
X22900Y58087D01*
X18778Y53242D02*
X17779Y54242D01*
X15779D01*
X14780Y53242D01*
Y52243D01*
X15779Y51243D01*
X17779D01*
X18778Y50243D01*
Y49244D01*
X17779Y48244D01*
X15779D01*
X14780Y49244D01*
X20778Y54242D02*
X22777D01*
X21777D01*
Y48244D01*
X20778D01*
X22777D01*
X12249Y96487D02*
X11249Y97487D01*
X9250D01*
X8250Y96487D01*
Y92489D01*
X9250Y91489D01*
X11249D01*
X12249Y92489D01*
X14248Y91489D02*
X16248D01*
X15248D01*
Y97487D01*
X14248Y96487D01*
X19247Y92489D02*
X20246Y91489D01*
X22246D01*
X23246Y92489D01*
Y96487D01*
X22246Y97487D01*
X20246D01*
X19247Y96487D01*
Y95488D01*
X20246Y94488D01*
X23246D01*
X7700Y170198D02*
Y164200D01*
Y167199D01*
X11699D01*
Y170198D01*
Y164200D01*
X13698D02*
X15697D01*
X14698D01*
Y170198D01*
X13698Y169198D01*
X8874Y119203D02*
X10873D01*
X9874D01*
Y113205D01*
X8874D01*
X10873D01*
X13872D02*
Y119203D01*
X17871Y113205D01*
Y119203D01*
X19871D02*
X23869D01*
X21870D01*
Y113205D01*
X18778Y128046D02*
X17779Y129045D01*
X15779D01*
X14780Y128046D01*
Y127046D01*
X15779Y126046D01*
X17779D01*
X18778Y125047D01*
Y124047D01*
X17779Y123047D01*
X15779D01*
X14780Y124047D01*
X23777Y129045D02*
X21777D01*
X20778Y128046D01*
Y124047D01*
X21777Y123047D01*
X23777D01*
X24776Y124047D01*
Y128046D01*
X23777Y129045D01*
X40370Y109360D02*
Y105362D01*
X42369Y103362D01*
X44369Y105362D01*
Y109360D01*
X50367Y107361D02*
X47368D01*
X46368Y106361D01*
Y104362D01*
X47368Y103362D01*
X50367D01*
X56365Y107361D02*
X53366D01*
X52366Y106361D01*
Y104362D01*
X53366Y103362D01*
X56365D01*
X49120Y123109D02*
X48120Y122109D01*
Y120110D01*
X49120Y119110D01*
X53118D01*
X54118Y120110D01*
Y122109D01*
X53118Y123109D01*
X51119D01*
Y121110D01*
X54118Y125108D02*
X48120D01*
X54118Y129107D01*
X48120D01*
Y131106D02*
X54118D01*
Y134105D01*
X53118Y135105D01*
X49120D01*
X48120Y134105D01*
Y131106D01*
X18778Y159542D02*
X17779Y160541D01*
X15779D01*
X14780Y159542D01*
Y155543D01*
X15779Y154543D01*
X17779D01*
X18778Y155543D01*
X24776Y159542D02*
X23777Y160541D01*
X21777D01*
X20778Y159542D01*
Y158542D01*
X21777Y157542D01*
X23777D01*
X24776Y156543D01*
Y155543D01*
X23777Y154543D01*
X21777D01*
X20778Y155543D01*
X12873Y147731D02*
X11873Y148730D01*
X9874D01*
X8874Y147731D01*
Y146731D01*
X9874Y145731D01*
X11873D01*
X12873Y144732D01*
Y143732D01*
X11873Y142732D01*
X9874D01*
X8874Y143732D01*
X18871Y147731D02*
X17871Y148730D01*
X15872D01*
X14872Y147731D01*
Y143732D01*
X15872Y142732D01*
X17871D01*
X18871Y143732D01*
X20870Y148730D02*
Y142732D01*
Y144732D01*
X24869Y148730D01*
X21870Y145731D01*
X24869Y142732D01*
X20747Y137888D02*
X19747Y138888D01*
X17748D01*
X16748Y137888D01*
Y136889D01*
X17748Y135889D01*
X19747D01*
X20747Y134889D01*
Y133889D01*
X19747Y132890D01*
X17748D01*
X16748Y133889D01*
X22746Y138888D02*
X24745D01*
X23746D01*
Y132890D01*
X22746D01*
X24745D01*
X96737Y9480D02*
X95738Y10479D01*
X93738D01*
X92739Y9480D01*
Y5481D01*
X93738Y4481D01*
X95738D01*
X96737Y5481D01*
X98737Y4481D02*
X100736D01*
X99736D01*
Y10479D01*
X98737Y9480D01*
X103735Y10479D02*
X107734D01*
Y9480D01*
X103735Y5481D01*
Y4481D01*
X121079Y58055D02*
X125077D01*
X127077Y56056D01*
X125077Y54056D01*
X121079D01*
X124078D01*
Y58055D01*
X121079Y48058D02*
Y52057D01*
X125077Y48058D01*
X126077D01*
X127077Y49058D01*
Y51057D01*
X126077Y52057D01*
X130921Y58055D02*
X134920D01*
X136919Y56056D01*
X134920Y54056D01*
X130921D01*
X133920D01*
Y58055D01*
X130921Y52057D02*
Y50058D01*
Y51057D01*
X136919D01*
X135920Y52057D01*
X140764Y58055D02*
X144763D01*
X146762Y56056D01*
X144763Y54056D01*
X140764D01*
X143763D01*
Y58055D01*
X145762Y52057D02*
X146762Y51057D01*
Y49058D01*
X145762Y48058D01*
X141763D01*
X140764Y49058D01*
Y51057D01*
X141763Y52057D01*
X145762D01*
X130983Y86707D02*
X129983Y87707D01*
X127984D01*
X126984Y86707D01*
Y82708D01*
X127984Y81709D01*
X129983D01*
X130983Y82708D01*
Y84708D01*
X128984D01*
X132982Y81709D02*
Y87707D01*
X136981Y81709D01*
Y87707D01*
X138980D02*
Y81709D01*
X141979D01*
X142979Y82708D01*
Y86707D01*
X141979Y87707D01*
X138980D01*
X151513Y101332D02*
Y107330D01*
X154512D01*
X155512Y106330D01*
Y104331D01*
X154512Y103331D01*
X151513D01*
X157511Y101332D02*
X159511D01*
X158511D01*
Y107330D01*
X157511Y106330D01*
X151513Y61962D02*
Y65960D01*
X153513Y67960D01*
X155512Y65960D01*
Y61962D01*
Y64961D01*
X151513D01*
X157511Y61962D02*
X159511D01*
X158511D01*
Y67960D01*
X157511Y66960D01*
X1360112Y17871D02*
X1359113Y16871D01*
Y14872D01*
X1360112Y13872D01*
X1364111D01*
X1365111Y14872D01*
Y16871D01*
X1364111Y17871D01*
X1362112D01*
Y15872D01*
X1361112Y20870D02*
Y22870D01*
X1362112Y23869D01*
X1365111D01*
Y20870D01*
X1364111Y19871D01*
X1363111Y20870D01*
Y23869D01*
X1365111Y25868D02*
X1361112D01*
Y26868D01*
X1362112Y27868D01*
X1365111D01*
X1362112D01*
X1361112Y28868D01*
X1362112Y29867D01*
X1365111D01*
Y34866D02*
Y32866D01*
X1364111Y31867D01*
X1362112D01*
X1361112Y32866D01*
Y34866D01*
X1362112Y35865D01*
X1363111D01*
Y31867D01*
X1365111Y43863D02*
X1359113D01*
Y46862D01*
X1360112Y47861D01*
X1362112D01*
X1363111Y46862D01*
Y43863D01*
X1365111Y49861D02*
Y51860D01*
Y50860D01*
X1361112D01*
Y49861D01*
X1365111Y57858D02*
Y55859D01*
X1364111Y54859D01*
X1362112D01*
X1361112Y55859D01*
Y57858D01*
X1362112Y58858D01*
X1363111D01*
Y54859D01*
X1361112Y64856D02*
Y61857D01*
X1362112Y60857D01*
X1364111D01*
X1365111Y61857D01*
Y64856D01*
Y69854D02*
Y67855D01*
X1364111Y66855D01*
X1362112D01*
X1361112Y67855D01*
Y69854D01*
X1362112Y70854D01*
X1363111D01*
Y66855D01*
X1359113Y78851D02*
X1365111D01*
Y82850D01*
Y85849D02*
Y87849D01*
X1364111Y88848D01*
X1362112D01*
X1361112Y87849D01*
Y85849D01*
X1362112Y84850D01*
X1364111D01*
X1365111Y85849D01*
X1361112Y94846D02*
Y91847D01*
X1362112Y90847D01*
X1364111D01*
X1365111Y91847D01*
Y94846D01*
X1361112Y97845D02*
Y99845D01*
X1362112Y100844D01*
X1365111D01*
Y97845D01*
X1364111Y96846D01*
X1363111Y97845D01*
Y100844D01*
X1360112Y103843D02*
X1361112D01*
Y102844D01*
Y104843D01*
Y103843D01*
X1364111D01*
X1365111Y104843D01*
Y107842D02*
Y109841D01*
Y108842D01*
X1361112D01*
Y107842D01*
X1365111Y112840D02*
X1361112D01*
Y115839D01*
X1362112Y116839D01*
X1365111D01*
X1367110Y120838D02*
Y121837D01*
X1366111Y122837D01*
X1361112D01*
Y119838D01*
X1362112Y118838D01*
X1364111D01*
X1365111Y119838D01*
Y122837D01*
X1360112Y134833D02*
X1359113Y133834D01*
Y131834D01*
X1360112Y130835D01*
X1364111D01*
X1365111Y131834D01*
Y133834D01*
X1364111Y134833D01*
X1365111Y136833D02*
Y138832D01*
Y137832D01*
X1361112D01*
Y136833D01*
Y141831D02*
X1365111D01*
X1363111D01*
X1362112Y142831D01*
X1361112Y143830D01*
Y144830D01*
Y151828D02*
Y148829D01*
X1362112Y147829D01*
X1364111D01*
X1365111Y148829D01*
Y151828D01*
X1361112Y153827D02*
X1364111D01*
X1365111Y154827D01*
Y157826D01*
X1361112D01*
X1365111Y159825D02*
Y161825D01*
Y160825D01*
X1361112D01*
Y159825D01*
X1360112Y165823D02*
X1361112D01*
Y164824D01*
Y166823D01*
Y165823D01*
X1364111D01*
X1365111Y166823D01*
X1390732Y75865D02*
Y71866D01*
X1386734Y75865D01*
X1385734D01*
X1384734Y74865D01*
Y72866D01*
X1385734Y71866D01*
Y77864D02*
X1384734Y78864D01*
Y80863D01*
X1385734Y81863D01*
X1389733D01*
X1390732Y80863D01*
Y78864D01*
X1389733Y77864D01*
X1385734D01*
X1390732Y87861D02*
Y83862D01*
X1386734Y87861D01*
X1385734D01*
X1384734Y86861D01*
Y84862D01*
X1385734Y83862D01*
Y89860D02*
X1384734Y90860D01*
Y92859D01*
X1385734Y93859D01*
X1389733D01*
X1390732Y92859D01*
Y90860D01*
X1389733Y89860D01*
X1385734D01*
X1390732Y95858D02*
X1386734Y99857D01*
X1390732Y105855D02*
Y101856D01*
X1386734Y105855D01*
X1385734D01*
X1384734Y104856D01*
Y102856D01*
X1385734Y101856D01*
X1390732Y107854D02*
Y109854D01*
Y108854D01*
X1384734D01*
X1385734Y107854D01*
X1397514Y12873D02*
X1396514Y11873D01*
Y9874D01*
X1397514Y8874D01*
X1401513D01*
X1402512Y9874D01*
Y11873D01*
X1401513Y12873D01*
X1396514Y14872D02*
X1402512D01*
X1399513D01*
X1398514Y15872D01*
Y17871D01*
X1399513Y18871D01*
X1402512D01*
Y23869D02*
Y21870D01*
X1401513Y20870D01*
X1399513D01*
X1398514Y21870D01*
Y23869D01*
X1399513Y24869D01*
X1400513D01*
Y20870D01*
X1398514Y30867D02*
Y27868D01*
X1399513Y26868D01*
X1401513D01*
X1402512Y27868D01*
Y30867D01*
Y32866D02*
X1396514D01*
X1400513D02*
X1398514Y35865D01*
X1400513Y32866D02*
X1402512Y35865D01*
Y41863D02*
Y39864D01*
X1401513Y38864D01*
X1399513D01*
X1398514Y39864D01*
Y41863D01*
X1399513Y42863D01*
X1400513D01*
Y38864D01*
X1398514Y44862D02*
X1402512D01*
X1400513D01*
X1399513Y45862D01*
X1398514Y46862D01*
Y47861D01*
X1402512Y50860D02*
Y53860D01*
X1401513Y54859D01*
X1400513Y53860D01*
Y51860D01*
X1399513Y50860D01*
X1398514Y51860D01*
Y54859D01*
X1402512Y62857D02*
X1396514D01*
Y65856D01*
X1397514Y66855D01*
X1399513D01*
X1400513Y65856D01*
Y62857D01*
X1402512Y68855D02*
Y70854D01*
Y69854D01*
X1396514D01*
Y68855D01*
X1398514Y74853D02*
Y76852D01*
X1399513Y77852D01*
X1402512D01*
Y74853D01*
X1401513Y73853D01*
X1400513Y74853D01*
Y77852D01*
X1398514Y79851D02*
X1401513D01*
X1402512Y80851D01*
Y83850D01*
X1403512D01*
X1404512Y82850D01*
Y81850D01*
X1402512Y83850D02*
X1398514D01*
X1402512Y85849D02*
Y87849D01*
Y86849D01*
X1398514D01*
Y85849D01*
X1402512Y90847D02*
X1398514D01*
Y93846D01*
X1399513Y94846D01*
X1402512D01*
X1404512Y98845D02*
Y99845D01*
X1403512Y100844D01*
X1398514D01*
Y97845D01*
X1399513Y96846D01*
X1401513D01*
X1402512Y97845D01*
Y100844D01*
Y108842D02*
X1396514D01*
Y111841D01*
X1397514Y112840D01*
X1399513D01*
X1400513Y111841D01*
Y108842D01*
Y110841D02*
X1402512Y112840D01*
Y115839D02*
Y117839D01*
X1401513Y118838D01*
X1399513D01*
X1398514Y117839D01*
Y115839D01*
X1399513Y114840D01*
X1401513D01*
X1402512Y115839D01*
X1396514Y120838D02*
X1402512D01*
Y123837D01*
X1401513Y124837D01*
X1400513D01*
X1399513D01*
X1398514Y123837D01*
Y120838D01*
X1402512Y127836D02*
Y129835D01*
X1401513Y130835D01*
X1399513D01*
X1398514Y129835D01*
Y127836D01*
X1399513Y126836D01*
X1401513D01*
X1402512Y127836D01*
X1397514Y133834D02*
X1398514D01*
Y132834D01*
Y134833D01*
Y133834D01*
X1401513D01*
X1402512Y134833D01*
X1399513Y143830D02*
Y147829D01*
X1396514Y159825D02*
Y155826D01*
X1399513D01*
Y157826D01*
Y155826D01*
X1402512D01*
X1396514Y161825D02*
X1397514D01*
X1399513Y163824D01*
X1397514Y165823D01*
X1396514D01*
X1399513Y163824D02*
X1402512D01*
Y167823D02*
X1396514D01*
Y170822D01*
X1397514Y171821D01*
X1399513D01*
X1400513Y170822D01*
Y167823D01*
X1372246Y49861D02*
Y45862D01*
X1378244D01*
Y49861D01*
X1375245Y45862D02*
Y47861D01*
X1378244Y51860D02*
Y53860D01*
Y52860D01*
X1372246D01*
Y51860D01*
X1378244Y56858D02*
Y58858D01*
Y57858D01*
X1374246D01*
Y56858D01*
X1380244Y61857D02*
Y62857D01*
X1379244Y63856D01*
X1374246D01*
Y68855D02*
Y70854D01*
X1375245Y71854D01*
X1378244D01*
Y68855D01*
X1377245Y67855D01*
X1376245Y68855D01*
Y71854D01*
X1372246Y73853D02*
X1378244D01*
X1375245D01*
X1374246Y74853D01*
Y76852D01*
X1375245Y77852D01*
X1378244D01*
X1372246Y85849D02*
X1378244D01*
X1376245D01*
X1372246Y89848D01*
X1375245Y86849D01*
X1378244Y89848D01*
X1374246Y92847D02*
Y94846D01*
X1375245Y95846D01*
X1378244D01*
Y92847D01*
X1377245Y91847D01*
X1376245Y92847D01*
Y95846D01*
X1373246Y98845D02*
X1374246D01*
Y97845D01*
Y99845D01*
Y98845D01*
X1377245D01*
X1378244Y99845D01*
X1374246Y102844D02*
X1378244D01*
X1376245D01*
X1375245Y103843D01*
X1374246Y104843D01*
Y105843D01*
Y109841D02*
Y111841D01*
X1375245Y112840D01*
X1378244D01*
Y109841D01*
X1377245Y108842D01*
X1376245Y109841D01*
Y112840D01*
X1378244Y114840D02*
X1374246D01*
Y117839D01*
X1375245Y118838D01*
X1378244D01*
Y120838D02*
Y123837D01*
X1377245Y124837D01*
X1376245Y123837D01*
Y121837D01*
X1375245Y120838D01*
X1374246Y121837D01*
Y124837D01*
X1378244Y126836D02*
X1372246D01*
X1376245D02*
X1374246Y129835D01*
X1376245Y126836D02*
X1378244Y129835D01*
Y132834D02*
Y134833D01*
Y133834D01*
X1374246D01*
Y132834D01*
X14375Y9542D02*
X13375Y10541D01*
X11376D01*
X10376Y9542D01*
Y5543D01*
X11376Y4543D01*
X13375D01*
X14375Y5543D01*
X16375Y4543D02*
X18374D01*
X17374D01*
Y10541D01*
X16375Y9542D01*
X21373D02*
X22373Y10541D01*
X24372D01*
X25372Y9542D01*
Y8542D01*
X24372Y7542D01*
X25372Y6543D01*
Y5543D01*
X24372Y4543D01*
X22373D01*
X21373Y5543D01*
Y6543D01*
X22373Y7542D01*
X21373Y8542D01*
Y9542D01*
X22373Y7542D02*
X24372D01*
X1319336Y118141D02*
X1318336Y119141D01*
X1316337D01*
X1315337Y118141D01*
Y114142D01*
X1316337Y113143D01*
X1318336D01*
X1319336Y114142D01*
X1321335Y113143D02*
X1323335D01*
X1322335D01*
Y119141D01*
X1321335Y118141D01*
X1330332Y119141D02*
X1328333Y118141D01*
X1326334Y116142D01*
Y114142D01*
X1327333Y113143D01*
X1329333D01*
X1330332Y114142D01*
Y115142D01*
X1329333Y116142D01*
X1326334D01*
X1081147Y66960D02*
X1080147Y67960D01*
X1078148D01*
X1077148Y66960D01*
Y62961D01*
X1078148Y61962D01*
X1080147D01*
X1081147Y62961D01*
X1083146Y61962D02*
X1085145D01*
X1084146D01*
Y67960D01*
X1083146Y66960D01*
X1092143Y67960D02*
X1088144D01*
Y64961D01*
X1090144Y65960D01*
X1091144D01*
X1092143Y64961D01*
Y62961D01*
X1091144Y61962D01*
X1089144D01*
X1088144Y62961D01*
X1020123Y116173D02*
X1019123Y117172D01*
X1017124D01*
X1016125Y116173D01*
Y112174D01*
X1017124Y111174D01*
X1019123D01*
X1020123Y112174D01*
X1022122Y111174D02*
X1024122D01*
X1023122D01*
Y117172D01*
X1022122Y116173D01*
X1030120Y111174D02*
Y117172D01*
X1027121Y114173D01*
X1031120D01*
X783903Y64991D02*
X782903Y65991D01*
X780904D01*
X779904Y64991D01*
Y60993D01*
X780904Y59993D01*
X782903D01*
X783903Y60993D01*
X785902Y59993D02*
X787901D01*
X786902D01*
Y65991D01*
X785902Y64991D01*
X790900D02*
X791900Y65991D01*
X793899D01*
X794899Y64991D01*
Y63992D01*
X793899Y62992D01*
X792900D01*
X793899D01*
X794899Y61992D01*
Y60993D01*
X793899Y59993D01*
X791900D01*
X790900Y60993D01*
X720911Y116173D02*
X719911Y117172D01*
X717912D01*
X716912Y116173D01*
Y112174D01*
X717912Y111174D01*
X719911D01*
X720911Y112174D01*
X722910Y111174D02*
X724909D01*
X723910D01*
Y117172D01*
X722910Y116173D01*
X731907Y111174D02*
X727908D01*
X731907Y115173D01*
Y116173D01*
X730907Y117172D01*
X728908D01*
X727908Y116173D01*
X485690Y66960D02*
X484690Y67960D01*
X482691D01*
X481691Y66960D01*
Y62961D01*
X482691Y61962D01*
X484690D01*
X485690Y62961D01*
X487689Y61962D02*
X489688D01*
X488689D01*
Y67960D01*
X487689Y66960D01*
X492688Y61962D02*
X494687D01*
X493687D01*
Y67960D01*
X492688Y66960D01*
X421698Y116173D02*
X420698Y117172D01*
X418699D01*
X417699Y116173D01*
Y112174D01*
X418699Y111174D01*
X420698D01*
X421698Y112174D01*
X423697Y111174D02*
X425697D01*
X424697D01*
Y117172D01*
X423697Y116173D01*
X428696D02*
X429695Y117172D01*
X431695D01*
X432694Y116173D01*
Y112174D01*
X431695Y111174D01*
X429695D01*
X428696Y112174D01*
Y116173D01*
X189945Y66960D02*
X188945Y67960D01*
X186946D01*
X185947Y66960D01*
Y62961D01*
X186946Y61962D01*
X188945D01*
X189945Y62961D01*
X191945D02*
X192944Y61962D01*
X194944D01*
X195943Y62961D01*
Y66960D01*
X194944Y67960D01*
X192944D01*
X191945Y66960D01*
Y65960D01*
X192944Y64961D01*
X195943D01*
X1239158Y66960D02*
X1238158Y67960D01*
X1236159D01*
X1235159Y66960D01*
Y62961D01*
X1236159Y61962D01*
X1238158D01*
X1239158Y62961D01*
X1241157Y66960D02*
X1242157Y67960D01*
X1244156D01*
X1245156Y66960D01*
Y65960D01*
X1244156Y64961D01*
X1245156Y63961D01*
Y62961D01*
X1244156Y61962D01*
X1242157D01*
X1241157Y62961D01*
Y63961D01*
X1242157Y64961D01*
X1241157Y65960D01*
Y66960D01*
X1242157Y64961D02*
X1244156D01*
X1172229Y118141D02*
X1171229Y119141D01*
X1169230D01*
X1168230Y118141D01*
Y114142D01*
X1169230Y113143D01*
X1171229D01*
X1172229Y114142D01*
X1174228Y119141D02*
X1178227D01*
Y118141D01*
X1174228Y114142D01*
Y113143D01*
X939945Y66960D02*
X938945Y67960D01*
X936946D01*
X935946Y66960D01*
Y62961D01*
X936946Y61962D01*
X938945D01*
X939945Y62961D01*
X945943Y67960D02*
X943944Y66960D01*
X941945Y64961D01*
Y62961D01*
X942944Y61962D01*
X944944D01*
X945943Y62961D01*
Y63961D01*
X944944Y64961D01*
X941945D01*
X871048Y116173D02*
X870048Y117172D01*
X868048D01*
X867049Y116173D01*
Y112174D01*
X868048Y111174D01*
X870048D01*
X871048Y112174D01*
X877046Y117172D02*
X873047D01*
Y114173D01*
X875046Y115173D01*
X876046D01*
X877046Y114173D01*
Y112174D01*
X876046Y111174D01*
X874047D01*
X873047Y112174D01*
X638764Y66960D02*
X637764Y67960D01*
X635765D01*
X634765Y66960D01*
Y62961D01*
X635765Y61962D01*
X637764D01*
X638764Y62961D01*
X643762Y61962D02*
Y67960D01*
X640764Y64961D01*
X644762D01*
X569867Y116173D02*
X568867Y117172D01*
X566867D01*
X565868Y116173D01*
Y112174D01*
X566867Y111174D01*
X568867D01*
X569867Y112174D01*
X571866Y116173D02*
X572865Y117172D01*
X574865D01*
X575865Y116173D01*
Y115173D01*
X574865Y114173D01*
X573865D01*
X574865D01*
X575865Y113174D01*
Y112174D01*
X574865Y111174D01*
X572865D01*
X571866Y112174D01*
X337583Y66960D02*
X336583Y67960D01*
X334584D01*
X333584Y66960D01*
Y62961D01*
X334584Y61962D01*
X336583D01*
X337583Y62961D01*
X343581Y61962D02*
X339582D01*
X343581Y65960D01*
Y66960D01*
X342581Y67960D01*
X340582D01*
X339582Y66960D01*
X273622Y116173D02*
X272622Y117172D01*
X270623D01*
X269623Y116173D01*
Y112174D01*
X270623Y111174D01*
X272622D01*
X273622Y112174D01*
X275621Y111174D02*
X277621D01*
X276621D01*
Y117172D01*
X275621Y116173D01*
X1016655Y101332D02*
Y107330D01*
X1019654D01*
X1020654Y106330D01*
Y104331D01*
X1019654Y103331D01*
X1016655D01*
X1018655D02*
X1020654Y101332D01*
X1026652Y107330D02*
X1024653Y106330D01*
X1022653Y104331D01*
Y102331D01*
X1023653Y101332D01*
X1025652D01*
X1026652Y102331D01*
Y103331D01*
X1025652Y104331D01*
X1022653D01*
X1276029Y100425D02*
X1275029Y101424D01*
X1273030D01*
X1272030Y100425D01*
Y99425D01*
X1273030Y98425D01*
X1275029D01*
X1276029Y97426D01*
Y96426D01*
X1275029Y95426D01*
X1273030D01*
X1272030Y96426D01*
X1278028Y95426D02*
X1280027D01*
X1279028D01*
Y101424D01*
X1278028Y100425D01*
X1287025Y101424D02*
X1285026Y100425D01*
X1283026Y98425D01*
Y96426D01*
X1284026Y95426D01*
X1286026D01*
X1287025Y96426D01*
Y97426D01*
X1286026Y98425D01*
X1283026D01*
X1123499Y79398D02*
X1122499Y80398D01*
X1120500D01*
X1119500Y79398D01*
Y78399D01*
X1120500Y77399D01*
X1122499D01*
X1123499Y76399D01*
Y75400D01*
X1122499Y74400D01*
X1120500D01*
X1119500Y75400D01*
X1125498Y74400D02*
X1127497D01*
X1126498D01*
Y80398D01*
X1125498Y79398D01*
X1134495Y80398D02*
X1130496D01*
Y77399D01*
X1132496Y78399D01*
X1133496D01*
X1134495Y77399D01*
Y75400D01*
X1133496Y74400D01*
X1131496D01*
X1130496Y75400D01*
X976816Y100425D02*
X975816Y101424D01*
X973817D01*
X972817Y100425D01*
Y99425D01*
X973817Y98425D01*
X975816D01*
X976816Y97426D01*
Y96426D01*
X975816Y95426D01*
X973817D01*
X972817Y96426D01*
X978815Y95426D02*
X980815D01*
X979815D01*
Y101424D01*
X978815Y100425D01*
X986813Y95426D02*
Y101424D01*
X983814Y98425D01*
X987813D01*
X826299Y79398D02*
X825299Y80398D01*
X823300D01*
X822300Y79398D01*
Y78399D01*
X823300Y77399D01*
X825299D01*
X826299Y76399D01*
Y75400D01*
X825299Y74400D01*
X823300D01*
X822300Y75400D01*
X828298Y74400D02*
X830297D01*
X829298D01*
Y80398D01*
X828298Y79398D01*
X833296D02*
X834296Y80398D01*
X836296D01*
X837295Y79398D01*
Y78399D01*
X836296Y77399D01*
X835296D01*
X836296D01*
X837295Y76399D01*
Y75400D01*
X836296Y74400D01*
X834296D01*
X833296Y75400D01*
X677603Y102393D02*
X676604Y103393D01*
X674605D01*
X673605Y102393D01*
Y101393D01*
X674605Y100394D01*
X676604D01*
X677603Y99394D01*
Y98394D01*
X676604Y97395D01*
X674605D01*
X673605Y98394D01*
X679603Y97395D02*
X681602D01*
X680603D01*
Y103393D01*
X679603Y102393D01*
X688600Y97395D02*
X684601D01*
X688600Y101393D01*
Y102393D01*
X687600Y103393D01*
X685601D01*
X684601Y102393D01*
X527199Y79398D02*
X526199Y80398D01*
X524200D01*
X523200Y79398D01*
Y78399D01*
X524200Y77399D01*
X526199D01*
X527199Y76399D01*
Y75400D01*
X526199Y74400D01*
X524200D01*
X523200Y75400D01*
X529198Y74400D02*
X531197D01*
X530198D01*
Y80398D01*
X529198Y79398D01*
X534196Y74400D02*
X536196D01*
X535196D01*
Y80398D01*
X534196Y79398D01*
X378391Y102393D02*
X377391Y103393D01*
X375392D01*
X374392Y102393D01*
Y101393D01*
X375392Y100394D01*
X377391D01*
X378391Y99394D01*
Y98394D01*
X377391Y97395D01*
X375392D01*
X374392Y98394D01*
X380390Y97395D02*
X382390D01*
X381390D01*
Y103393D01*
X380390Y102393D01*
X385389D02*
X386388Y103393D01*
X388388D01*
X389387Y102393D01*
Y98394D01*
X388388Y97395D01*
X386388D01*
X385389Y98394D01*
Y102393D01*
X231284Y78771D02*
X230284Y79771D01*
X228285D01*
X227285Y78771D01*
Y77771D01*
X228285Y76772D01*
X230284D01*
X231284Y75772D01*
Y74772D01*
X230284Y73773D01*
X228285D01*
X227285Y74772D01*
X233283D02*
X234283Y73773D01*
X236282D01*
X237282Y74772D01*
Y78771D01*
X236282Y79771D01*
X234283D01*
X233283Y78771D01*
Y77771D01*
X234283Y76772D01*
X237282D01*
X1278528Y78771D02*
X1277528Y79771D01*
X1275529D01*
X1274529Y78771D01*
Y77771D01*
X1275529Y76772D01*
X1277528D01*
X1278528Y75772D01*
Y74772D01*
X1277528Y73773D01*
X1275529D01*
X1274529Y74772D01*
X1280527Y78771D02*
X1281527Y79771D01*
X1283526D01*
X1284526Y78771D01*
Y77771D01*
X1283526Y76772D01*
X1284526Y75772D01*
Y74772D01*
X1283526Y73773D01*
X1281527D01*
X1280527Y74772D01*
Y75772D01*
X1281527Y76772D01*
X1280527Y77771D01*
Y78771D01*
X1281527Y76772D02*
X1283526D01*
X1126953Y102393D02*
X1125953Y103393D01*
X1123954D01*
X1122954Y102393D01*
Y101393D01*
X1123954Y100394D01*
X1125953D01*
X1126953Y99394D01*
Y98394D01*
X1125953Y97395D01*
X1123954D01*
X1122954Y98394D01*
X1128952Y103393D02*
X1132951D01*
Y102393D01*
X1128952Y98394D01*
Y97395D01*
X979315Y80739D02*
X978316Y81739D01*
X976316D01*
X975317Y80739D01*
Y79740D01*
X976316Y78740D01*
X978316D01*
X979315Y77741D01*
Y76741D01*
X978316Y75741D01*
X976316D01*
X975317Y76741D01*
X985313Y81739D02*
X983314Y80739D01*
X981315Y78740D01*
Y76741D01*
X982314Y75741D01*
X984314D01*
X985313Y76741D01*
Y77741D01*
X984314Y78740D01*
X981315D01*
X829709Y100425D02*
X828709Y101424D01*
X826710D01*
X825710Y100425D01*
Y99425D01*
X826710Y98425D01*
X828709D01*
X829709Y97426D01*
Y96426D01*
X828709Y95426D01*
X826710D01*
X825710Y96426D01*
X835707Y101424D02*
X831708D01*
Y98425D01*
X833708Y99425D01*
X834707D01*
X835707Y98425D01*
Y96426D01*
X834707Y95426D01*
X832708D01*
X831708Y96426D01*
X680103Y78771D02*
X679103Y79771D01*
X677104D01*
X676104Y78771D01*
Y77771D01*
X677104Y76772D01*
X679103D01*
X680103Y75772D01*
Y74772D01*
X679103Y73773D01*
X677104D01*
X676104Y74772D01*
X685101Y73773D02*
Y79771D01*
X682102Y76772D01*
X686101D01*
X530496Y100425D02*
X529497Y101424D01*
X527497D01*
X526498Y100425D01*
Y99425D01*
X527497Y98425D01*
X529497D01*
X530496Y97426D01*
Y96426D01*
X529497Y95426D01*
X527497D01*
X526498Y96426D01*
X532496Y100425D02*
X533495Y101424D01*
X535495D01*
X536494Y100425D01*
Y99425D01*
X535495Y98425D01*
X534495D01*
X535495D01*
X536494Y97426D01*
Y96426D01*
X535495Y95426D01*
X533495D01*
X532496Y96426D01*
X380890Y78771D02*
X379890Y79771D01*
X377891D01*
X376891Y78771D01*
Y77771D01*
X377891Y76772D01*
X379890D01*
X380890Y75772D01*
Y74772D01*
X379890Y73773D01*
X377891D01*
X376891Y74772D01*
X386888Y73773D02*
X382889D01*
X386888Y77771D01*
Y78771D01*
X385889Y79771D01*
X383889D01*
X382889Y78771D01*
X232283Y100425D02*
X231284Y101424D01*
X229284D01*
X228285Y100425D01*
Y99425D01*
X229284Y98425D01*
X231284D01*
X232283Y97426D01*
Y96426D01*
X231284Y95426D01*
X229284D01*
X228285Y96426D01*
X234283Y95426D02*
X236282D01*
X235282D01*
Y101424D01*
X234283Y100425D01*
X1230691Y101332D02*
Y107330D01*
X1233690D01*
X1234690Y106330D01*
Y104331D01*
X1233690Y103331D01*
X1230691D01*
X1232691D02*
X1234690Y101332D01*
X1236689D02*
X1238689D01*
X1237689D01*
Y107330D01*
X1236689Y106330D01*
X1245687Y107330D02*
X1243687Y106330D01*
X1241688Y104331D01*
Y102331D01*
X1242688Y101332D01*
X1244687D01*
X1245687Y102331D01*
Y103331D01*
X1244687Y104331D01*
X1241688D01*
X1079117Y101332D02*
Y107330D01*
X1082116D01*
X1083115Y106330D01*
Y104331D01*
X1082116Y103331D01*
X1079117D01*
X1081116D02*
X1083115Y101332D01*
X1085115D02*
X1087114D01*
X1086114D01*
Y107330D01*
X1085115Y106330D01*
X1094112Y107330D02*
X1090113D01*
Y104331D01*
X1092112Y105330D01*
X1093112D01*
X1094112Y104331D01*
Y102331D01*
X1093112Y101332D01*
X1091113D01*
X1090113Y102331D01*
X931479Y101332D02*
Y107330D01*
X934478D01*
X935478Y106330D01*
Y104331D01*
X934478Y103331D01*
X931479D01*
X933478D02*
X935478Y101332D01*
X937477D02*
X939476D01*
X938476D01*
Y107330D01*
X937477Y106330D01*
X945474Y101332D02*
Y107330D01*
X942475Y104331D01*
X946474D01*
X783841Y101332D02*
Y107330D01*
X786840D01*
X787840Y106330D01*
Y104331D01*
X786840Y103331D01*
X783841D01*
X785840D02*
X787840Y101332D01*
X789839D02*
X791838D01*
X790839D01*
Y107330D01*
X789839Y106330D01*
X794837D02*
X795837Y107330D01*
X797836D01*
X798836Y106330D01*
Y105330D01*
X797836Y104331D01*
X796837D01*
X797836D01*
X798836Y103331D01*
Y102331D01*
X797836Y101332D01*
X795837D01*
X794837Y102331D01*
X634235Y101332D02*
Y107330D01*
X637234D01*
X638233Y106330D01*
Y104331D01*
X637234Y103331D01*
X634235D01*
X636234D02*
X638233Y101332D01*
X640233D02*
X642232D01*
X641232D01*
Y107330D01*
X640233Y106330D01*
X649230Y101332D02*
X645231D01*
X649230Y105330D01*
Y106330D01*
X648230Y107330D01*
X646231D01*
X645231Y106330D01*
X483660Y101332D02*
Y107330D01*
X486659D01*
X487658Y106330D01*
Y104331D01*
X486659Y103331D01*
X483660D01*
X485659D02*
X487658Y101332D01*
X489658D02*
X491657D01*
X490657D01*
Y107330D01*
X489658Y106330D01*
X494656Y101332D02*
X496655D01*
X495656D01*
Y107330D01*
X494656Y106330D01*
X331085Y101332D02*
Y107330D01*
X334084D01*
X335084Y106330D01*
Y104331D01*
X334084Y103331D01*
X331085D01*
X333085D02*
X335084Y101332D01*
X337083D02*
X339083D01*
X338083D01*
Y107330D01*
X337083Y106330D01*
X342082D02*
X343081Y107330D01*
X345081D01*
X346080Y106330D01*
Y102331D01*
X345081Y101332D01*
X343081D01*
X342082Y102331D01*
Y106330D01*
X185947Y101332D02*
Y107330D01*
X188945D01*
X189945Y106330D01*
Y104331D01*
X188945Y103331D01*
X185947D01*
X187946D02*
X189945Y101332D01*
X191945Y102331D02*
X192944Y101332D01*
X194944D01*
X195943Y102331D01*
Y106330D01*
X194944Y107330D01*
X192944D01*
X191945Y106330D01*
Y105330D01*
X192944Y104331D01*
X195943D01*
X1315868Y101332D02*
Y107330D01*
X1318867D01*
X1319866Y106330D01*
Y104331D01*
X1318867Y103331D01*
X1315868D01*
X1317867D02*
X1319866Y101332D01*
X1321866Y106330D02*
X1322865Y107330D01*
X1324865D01*
X1325865Y106330D01*
Y105330D01*
X1324865Y104331D01*
X1325865Y103331D01*
Y102331D01*
X1324865Y101332D01*
X1322865D01*
X1321866Y102331D01*
Y103331D01*
X1322865Y104331D01*
X1321866Y105330D01*
Y106330D01*
X1322865Y104331D02*
X1324865D01*
X1168230Y101332D02*
Y107330D01*
X1171229D01*
X1172229Y106330D01*
Y104331D01*
X1171229Y103331D01*
X1168230D01*
X1170229D02*
X1172229Y101332D01*
X1174228Y107330D02*
X1178227D01*
Y106330D01*
X1174228Y102331D01*
Y101332D01*
X867049D02*
Y107330D01*
X870048D01*
X871048Y106330D01*
Y104331D01*
X870048Y103331D01*
X867049D01*
X869048D02*
X871048Y101332D01*
X877046Y107330D02*
X873047D01*
Y104331D01*
X875046Y105330D01*
X876046D01*
X877046Y104331D01*
Y102331D01*
X876046Y101332D01*
X874047D01*
X873047Y102331D01*
X717443Y101332D02*
Y107330D01*
X720442D01*
X721441Y106330D01*
Y104331D01*
X720442Y103331D01*
X717443D01*
X719442D02*
X721441Y101332D01*
X726440D02*
Y107330D01*
X723441Y104331D01*
X727439D01*
X565868Y101332D02*
Y107330D01*
X568867D01*
X569867Y106330D01*
Y104331D01*
X568867Y103331D01*
X565868D01*
X567867D02*
X569867Y101332D01*
X571866Y106330D02*
X572865Y107330D01*
X574865D01*
X575865Y106330D01*
Y105330D01*
X574865Y104331D01*
X573865D01*
X574865D01*
X575865Y103331D01*
Y102331D01*
X574865Y101332D01*
X572865D01*
X571866Y102331D01*
X418230Y101332D02*
Y107330D01*
X421229D01*
X422229Y106330D01*
Y104331D01*
X421229Y103331D01*
X418230D01*
X420229D02*
X422229Y101332D01*
X428227D02*
X424228D01*
X428227Y105330D01*
Y106330D01*
X427227Y107330D01*
X425228D01*
X424228Y106330D01*
X269623Y101332D02*
Y107330D01*
X272622D01*
X273622Y106330D01*
Y104331D01*
X272622Y103331D01*
X269623D01*
X271623D02*
X273622Y101332D01*
X275621D02*
X277621D01*
X276621D01*
Y107330D01*
X275621Y106330D01*
X76299Y166385D02*
X74300D01*
X75300D01*
Y161387D01*
X74300Y160387D01*
X73300D01*
X72300Y161387D01*
X78299Y160387D02*
X80298D01*
X79298D01*
Y166385D01*
X78299Y165385D01*
M02*
