G04*
G04 #@! TF.GenerationSoftware,Altium Limited,Altium Designer,21.2.2 (38)*
G04*
G04 Layer_Color=16711935*
%FSLAX25Y25*%
%MOIN*%
G70*
G04*
G04 #@! TF.SameCoordinates,B0292683-A3BF-4B68-AAF6-4A0ED23DE7E7*
G04*
G04*
G04 #@! TF.FilePolarity,Negative*
G04*
G01*
G75*
%ADD12C,0.06706*%
%ADD13R,0.06706X0.06706*%
%ADD14C,0.05524*%
%ADD15O,0.10642X0.05524*%
%ADD16O,0.10642X0.06706*%
%ADD17R,0.10642X0.06706*%
%ADD18R,0.04737X0.04737*%
%ADD19C,0.04737*%
%ADD20R,0.05524X0.05524*%
%ADD21C,0.20485*%
%ADD22C,0.03162*%
D12*
X39370Y31181D02*
D03*
Y41181D02*
D03*
Y51181D02*
D03*
Y61181D02*
D03*
Y71181D02*
D03*
X29370Y31181D02*
D03*
Y41181D02*
D03*
Y51181D02*
D03*
Y61181D02*
D03*
X41496Y115827D02*
D03*
Y125827D02*
D03*
Y135827D02*
D03*
Y145827D02*
D03*
Y155827D02*
D03*
X31496Y115827D02*
D03*
Y125827D02*
D03*
Y135827D02*
D03*
Y145827D02*
D03*
D13*
X29370Y71181D02*
D03*
X31496Y155827D02*
D03*
D14*
X41496Y94488D02*
D03*
X31496D02*
D03*
X82677Y7874D02*
D03*
X72677D02*
D03*
X301181Y88583D02*
D03*
X246063D02*
D03*
X395669D02*
D03*
X450787D02*
D03*
X600394D02*
D03*
X545276D02*
D03*
X694882D02*
D03*
X750000D02*
D03*
X899606D02*
D03*
X844488D02*
D03*
X1143701D02*
D03*
X1198819D02*
D03*
X1348425D02*
D03*
X1293307D02*
D03*
X163386D02*
D03*
X218504D02*
D03*
X368110D02*
D03*
X312992D02*
D03*
X462598D02*
D03*
X517717D02*
D03*
X667323D02*
D03*
X612205D02*
D03*
X761811D02*
D03*
X816929D02*
D03*
X966535D02*
D03*
X911417D02*
D03*
X1061024D02*
D03*
X1116142D02*
D03*
X1265748D02*
D03*
X1210630D02*
D03*
X994094D02*
D03*
X1049213D02*
D03*
X253937Y118110D02*
D03*
Y108110D02*
D03*
X358268Y58898D02*
D03*
Y68898D02*
D03*
X553150Y118110D02*
D03*
Y108110D02*
D03*
X657480Y59055D02*
D03*
Y69055D02*
D03*
X852362Y118268D02*
D03*
Y108268D02*
D03*
X958661Y58898D02*
D03*
Y68898D02*
D03*
X1149606Y108110D02*
D03*
Y118110D02*
D03*
X1257874Y68898D02*
D03*
Y58898D02*
D03*
X208661Y68898D02*
D03*
Y58898D02*
D03*
X403543Y108268D02*
D03*
Y118268D02*
D03*
X507874Y68898D02*
D03*
Y58898D02*
D03*
X702756Y108110D02*
D03*
Y118110D02*
D03*
X809055Y69055D02*
D03*
Y59055D02*
D03*
X1001969Y108268D02*
D03*
Y118268D02*
D03*
X1106299Y59055D02*
D03*
Y69055D02*
D03*
X1301181Y108110D02*
D03*
Y118110D02*
D03*
X33465Y9843D02*
D03*
X43465D02*
D03*
X124016Y64961D02*
D03*
X133858D02*
D03*
Y104331D02*
D03*
X124016D02*
D03*
X143701Y94488D02*
D03*
X133858D02*
D03*
X124016D02*
D03*
D15*
X94488Y22362D02*
D03*
D16*
Y32362D02*
D03*
Y42362D02*
D03*
Y52362D02*
D03*
Y62362D02*
D03*
Y72362D02*
D03*
Y82362D02*
D03*
Y92362D02*
D03*
Y102362D02*
D03*
Y112362D02*
D03*
Y122362D02*
D03*
Y132362D02*
D03*
Y142362D02*
D03*
Y152362D02*
D03*
X64488Y22362D02*
D03*
Y32362D02*
D03*
Y42362D02*
D03*
Y52362D02*
D03*
Y62362D02*
D03*
Y72362D02*
D03*
Y82362D02*
D03*
Y92362D02*
D03*
Y102362D02*
D03*
Y112362D02*
D03*
Y122362D02*
D03*
Y132362D02*
D03*
Y142362D02*
D03*
D17*
Y152362D02*
D03*
D18*
X227283Y110236D02*
D03*
X386890Y66929D02*
D03*
X526496Y110236D02*
D03*
X686102Y66929D02*
D03*
X825709Y110236D02*
D03*
X985315Y66929D02*
D03*
X1122953Y110236D02*
D03*
X1284528Y66929D02*
D03*
X237283D02*
D03*
X376890Y110236D02*
D03*
X536496Y66929D02*
D03*
X676102Y110236D02*
D03*
X835709Y66929D02*
D03*
X975315Y110236D02*
D03*
X1132953Y66929D02*
D03*
X1274528Y110236D02*
D03*
D19*
X232283D02*
D03*
X237283D02*
D03*
X376890Y66929D02*
D03*
X381890D02*
D03*
X531496Y110236D02*
D03*
X536496D02*
D03*
X676102Y66929D02*
D03*
X681102D02*
D03*
X830709Y110236D02*
D03*
X835709D02*
D03*
X975315Y66929D02*
D03*
X980315D02*
D03*
X1127953Y110236D02*
D03*
X1132953D02*
D03*
X1274528Y66929D02*
D03*
X1279528D02*
D03*
X232283D02*
D03*
X227283D02*
D03*
X386890Y110236D02*
D03*
X381890D02*
D03*
X531496Y66929D02*
D03*
X526496D02*
D03*
X686102Y110236D02*
D03*
X681102D02*
D03*
X830709Y66929D02*
D03*
X825709D02*
D03*
X985315Y110236D02*
D03*
X980315D02*
D03*
X1127953Y66929D02*
D03*
X1122953D02*
D03*
X1284528Y110236D02*
D03*
X1279528D02*
D03*
D20*
X143701Y64961D02*
D03*
Y104331D02*
D03*
D21*
X129921Y149606D02*
D03*
X1381890D02*
D03*
Y27559D02*
D03*
X129921D02*
D03*
D22*
X73000Y69100D02*
D03*
X375100Y52200D02*
D03*
X427900Y92800D02*
D03*
X653600Y88600D02*
D03*
X171200Y97800D02*
D03*
X223300Y76000D02*
D03*
X695500Y118800D02*
D03*
X104100Y75300D02*
D03*
X191100Y94600D02*
D03*
M02*
