G04*
G04 #@! TF.GenerationSoftware,Altium Limited,Altium Designer,21.2.2 (38)*
G04*
G04 Layer_Physical_Order=1*
G04 Layer_Color=255*
%FSLAX25Y25*%
%MOIN*%
G70*
G04*
G04 #@! TF.SameCoordinates,B0292683-A3BF-4B68-AAF6-4A0ED23DE7E7*
G04*
G04*
G04 #@! TF.FilePolarity,Positive*
G04*
G01*
G75*
%ADD23C,0.01968*%
%ADD24C,0.05906*%
%ADD25R,0.05906X0.05906*%
%ADD26C,0.04724*%
%ADD27O,0.09843X0.04724*%
%ADD28O,0.09843X0.05906*%
%ADD29R,0.09843X0.05906*%
%ADD30R,0.03937X0.03937*%
%ADD31C,0.03937*%
%ADD32R,0.04724X0.04724*%
%ADD33C,0.19685*%
%ADD34C,0.02362*%
D23*
X29370Y35029D02*
X32291D01*
X74000Y65399D02*
X82677Y56722D01*
X87037Y52362D01*
X68000Y139300D02*
Y142362D01*
X687102Y106000D02*
X689600Y108498D01*
X681102Y66929D02*
Y84900D01*
X689600Y93398D01*
Y108498D01*
X691900Y110798D01*
Y120200D01*
X698566Y122300D02*
X702756Y118110D01*
X694000Y122300D02*
X698566D01*
X691900Y120200D02*
X694000Y122300D01*
X685339Y106000D02*
X687102D01*
X681102Y110236D02*
X685339Y106000D01*
X29370Y51181D02*
X34053Y55864D01*
Y75630D01*
X27047Y82636D02*
X34053Y75630D01*
X27047Y82636D02*
Y131378D01*
X31496Y135827D01*
X82677Y7874D02*
Y56722D01*
X71301Y65399D02*
X74000D01*
X66800Y72362D02*
X71301Y65399D01*
X87037Y52362D02*
X94488D01*
X64488Y72362D02*
X66800D01*
X64488Y122362D02*
X70638D01*
X71715Y121285D01*
Y70385D02*
Y121285D01*
Y70385D02*
X73000Y69100D01*
X375100Y52200D02*
X387300D01*
X427900Y92800D01*
X1154606Y88583D02*
X1198819D01*
X1132953Y110236D02*
X1154606Y88583D01*
X654432Y88600D02*
X676102Y66929D01*
X653600Y88600D02*
X654432D01*
X151431Y117569D02*
X171200Y97800D01*
X141500Y117569D02*
X151431D01*
X136707Y122362D02*
X141500Y117569D01*
X94488Y122362D02*
X136707D01*
X94488Y142362D02*
X104100D01*
X111620Y134843D01*
X132697D01*
X144520Y123020D01*
X176280D01*
X223300Y76000D01*
X376890Y66929D02*
X381019Y62800D01*
X390300D01*
X426100Y98600D01*
X440770D01*
X450787Y88583D01*
X94488Y152362D02*
X106600D01*
X121639Y137323D01*
X141677D01*
X153500Y125500D01*
X264264D01*
X301181Y88583D01*
X59000Y52362D02*
X64488D01*
X58000Y53362D02*
X59000Y52362D01*
X58000Y53362D02*
Y153700D01*
X51400Y160300D02*
X58000Y153700D01*
X35969Y160300D02*
X51400D01*
X31496Y155827D02*
X35969Y160300D01*
X24567Y65985D02*
X29370Y61181D01*
X24567Y65985D02*
Y138897D01*
X31496Y145827D01*
X22000Y48551D02*
X29370Y41181D01*
X22000Y48551D02*
Y144300D01*
X28000Y150300D01*
X34000D01*
X36000Y148300D01*
Y130331D02*
Y148300D01*
X31496Y125827D02*
X36000Y130331D01*
X94488Y62362D02*
Y72362D01*
X29370Y31181D02*
Y35029D01*
X32291D02*
X34400Y37138D01*
Y52503D01*
X37527Y55630D01*
X41530D01*
X43900Y58000D01*
Y81600D01*
X36500Y89000D02*
X43900Y81600D01*
X36500Y89000D02*
Y110823D01*
X31496Y115827D02*
X36500Y110823D01*
X39370Y13937D02*
X43465Y9843D01*
X39370Y13937D02*
Y31181D01*
X94488Y52362D02*
X102400D01*
X110500Y60462D01*
Y90815D01*
X124016Y104331D01*
X41496Y94488D02*
Y115827D01*
X218504Y101457D02*
X227283Y110236D01*
X218504Y88583D02*
Y101457D01*
X227283Y110236D02*
X235157Y118110D01*
X253937D01*
X237283Y79803D02*
X246063Y88583D01*
X237283Y66929D02*
Y79803D01*
X368110Y78740D02*
Y88583D01*
X358268Y68898D02*
X368110Y78740D01*
Y88583D02*
Y101457D01*
X376890Y110236D01*
X395669Y75709D02*
Y88583D01*
X386890Y66929D02*
X395669Y75709D01*
Y88583D02*
X403543Y96457D01*
Y108268D01*
X517717Y88583D02*
Y101457D01*
X526496Y110236D01*
X534370Y118110D01*
X553150D01*
X536496Y79803D02*
X545276Y88583D01*
X536496Y66929D02*
Y79803D01*
X667323Y88583D02*
Y101457D01*
X676102Y110236D01*
X694882Y75709D02*
Y88583D01*
X686102Y66929D02*
X694882Y75709D01*
Y88583D02*
X702756Y96457D01*
Y108110D01*
X816929Y88583D02*
Y101457D01*
X825709Y110236D01*
X835709Y79803D02*
X844488Y88583D01*
X835709Y66929D02*
Y79803D01*
X825709Y110236D02*
X833740Y118268D01*
X852362D01*
X966535Y76772D02*
Y88583D01*
X958661Y68898D02*
X966535Y76772D01*
X994094Y88583D02*
X1001969Y96457D01*
Y108268D01*
X1116142Y78898D02*
Y88583D01*
X1106299Y69055D02*
X1116142Y78898D01*
Y88583D02*
Y103425D01*
X1122953Y110236D01*
X1126890Y114173D01*
X1143543D01*
X1149606Y108110D01*
X1293307Y75709D02*
Y88583D01*
X1284528Y66929D02*
X1293307Y75709D01*
Y88583D02*
X1301181Y96457D01*
Y108110D01*
X64488Y152362D02*
X80338D01*
X87300Y145400D01*
Y120000D02*
Y145400D01*
Y120000D02*
X89900Y117400D01*
X134278D01*
X136589Y115089D01*
X141111D01*
X163386Y92814D01*
Y88583D02*
Y92814D01*
Y88583D02*
X205630D01*
X227283Y66929D01*
X64488Y142362D02*
X68000D01*
Y139300D02*
X81300Y126000D01*
Y112000D02*
Y126000D01*
Y112000D02*
X86000Y107300D01*
X100700D01*
X104070Y110670D01*
X134530D01*
X138100Y107100D01*
Y91200D02*
Y107100D01*
Y91200D02*
X165900Y63400D01*
X287810D01*
X312992Y88583D01*
X339910Y115500D01*
X381626D01*
X386890Y110236D01*
X64488Y132362D02*
X70900D01*
X75341Y127921D01*
Y92959D02*
Y127921D01*
Y92959D02*
X90900Y77400D01*
X99300D01*
X100906Y75794D01*
Y73694D02*
Y75794D01*
Y73694D02*
X102000Y72600D01*
X105400D01*
X106800Y74000D01*
Y93300D01*
X121689Y108189D01*
X125711D01*
X127900Y106000D01*
Y90600D02*
Y106000D01*
Y90600D02*
X163500Y55000D01*
X386100D01*
X426600Y95500D01*
X433100D01*
X443900Y84700D01*
X458716D01*
X462598Y88583D01*
X504843D01*
X526496Y66929D01*
X612205Y88583D02*
X637422Y113800D01*
X682539D01*
X686102Y110236D01*
X695500Y118800D02*
X702100Y112200D01*
X738194D01*
X761811Y88583D01*
X804055D01*
X825709Y66929D01*
X981451Y114100D02*
X985315Y110236D01*
X936935Y114100D02*
X981451D01*
X911417Y88583D02*
X936935Y114100D01*
X1061024Y88583D02*
X1084506Y65100D01*
X1121124D01*
X1122953Y66929D01*
X1210630Y88583D02*
X1235847Y113800D01*
X1280964D01*
X1284528Y110236D01*
X94488Y102362D02*
X101100D01*
X104100Y99362D01*
Y75300D02*
Y99362D01*
X975315Y66929D02*
X978844Y63400D01*
X1024030D01*
X1049213Y88583D01*
X835709Y110236D02*
X857362Y88583D01*
X899606D01*
X676102Y66929D02*
X680632Y62400D01*
X723817D01*
X750000Y88583D01*
X94488Y132362D02*
X130216D01*
X142039Y120539D01*
X165161D01*
X191100Y94600D01*
X558150Y88583D02*
X600394D01*
X536496Y110236D02*
X558150Y88583D01*
X258937D02*
X301181D01*
X237283Y110236D02*
X258937Y88583D01*
X33465Y9843D02*
Y19965D01*
X34500Y21000D01*
Y33730D01*
X39370Y38600D01*
Y41181D01*
X72677Y7874D02*
Y61885D01*
X72200Y62362D02*
X72677Y61885D01*
X64488Y62362D02*
X72200D01*
X39370Y41181D02*
X46400Y48211D01*
Y120923D01*
X41496Y125827D02*
X46400Y120923D01*
X72677Y7874D02*
X77251Y3300D01*
X105000D01*
X109700Y8000D01*
Y34000D01*
X120100Y44400D01*
Y90572D01*
X124016Y94488D01*
X143701D02*
X169291Y68898D01*
X208661D01*
X232283Y66929D02*
Y110236D01*
X381890Y66929D02*
Y96614D01*
Y110236D01*
Y96614D02*
X403543Y118268D01*
X531496Y66929D02*
Y110236D01*
X830709Y66929D02*
Y110236D01*
X980315Y66929D02*
Y110236D01*
X1106299Y59055D02*
X1120079D01*
X1127953Y66929D01*
Y110236D01*
X1279528Y66929D02*
Y110236D01*
D24*
X39370Y31181D02*
D03*
Y41181D02*
D03*
Y51181D02*
D03*
Y61181D02*
D03*
Y71181D02*
D03*
X29370Y31181D02*
D03*
Y41181D02*
D03*
Y51181D02*
D03*
Y61181D02*
D03*
X41496Y115827D02*
D03*
Y125827D02*
D03*
Y135827D02*
D03*
Y145827D02*
D03*
Y155827D02*
D03*
X31496Y115827D02*
D03*
Y125827D02*
D03*
Y135827D02*
D03*
Y145827D02*
D03*
D25*
X29370Y71181D02*
D03*
X31496Y155827D02*
D03*
D26*
X41496Y94488D02*
D03*
X31496D02*
D03*
X82677Y7874D02*
D03*
X72677D02*
D03*
X301181Y88583D02*
D03*
X246063D02*
D03*
X395669D02*
D03*
X450787D02*
D03*
X600394D02*
D03*
X545276D02*
D03*
X694882D02*
D03*
X750000D02*
D03*
X899606D02*
D03*
X844488D02*
D03*
X1143701D02*
D03*
X1198819D02*
D03*
X1348425D02*
D03*
X1293307D02*
D03*
X163386D02*
D03*
X218504D02*
D03*
X368110D02*
D03*
X312992D02*
D03*
X462598D02*
D03*
X517717D02*
D03*
X667323D02*
D03*
X612205D02*
D03*
X761811D02*
D03*
X816929D02*
D03*
X966535D02*
D03*
X911417D02*
D03*
X1061024D02*
D03*
X1116142D02*
D03*
X1265748D02*
D03*
X1210630D02*
D03*
X994094D02*
D03*
X1049213D02*
D03*
X253937Y118110D02*
D03*
Y108110D02*
D03*
X358268Y58898D02*
D03*
Y68898D02*
D03*
X553150Y118110D02*
D03*
Y108110D02*
D03*
X657480Y59055D02*
D03*
Y69055D02*
D03*
X852362Y118268D02*
D03*
Y108268D02*
D03*
X958661Y58898D02*
D03*
Y68898D02*
D03*
X1149606Y108110D02*
D03*
Y118110D02*
D03*
X1257874Y68898D02*
D03*
Y58898D02*
D03*
X208661Y68898D02*
D03*
Y58898D02*
D03*
X403543Y108268D02*
D03*
Y118268D02*
D03*
X507874Y68898D02*
D03*
Y58898D02*
D03*
X702756Y108110D02*
D03*
Y118110D02*
D03*
X809055Y69055D02*
D03*
Y59055D02*
D03*
X1001969Y108268D02*
D03*
Y118268D02*
D03*
X1106299Y59055D02*
D03*
Y69055D02*
D03*
X1301181Y108110D02*
D03*
Y118110D02*
D03*
X33465Y9843D02*
D03*
X43465D02*
D03*
X124016Y64961D02*
D03*
X133858D02*
D03*
Y104331D02*
D03*
X124016D02*
D03*
X143701Y94488D02*
D03*
X133858D02*
D03*
X124016D02*
D03*
D27*
X94488Y22362D02*
D03*
D28*
Y32362D02*
D03*
Y42362D02*
D03*
Y52362D02*
D03*
Y62362D02*
D03*
Y72362D02*
D03*
Y82362D02*
D03*
Y92362D02*
D03*
Y102362D02*
D03*
Y112362D02*
D03*
Y122362D02*
D03*
Y132362D02*
D03*
Y142362D02*
D03*
Y152362D02*
D03*
X64488Y22362D02*
D03*
Y32362D02*
D03*
Y42362D02*
D03*
Y52362D02*
D03*
Y62362D02*
D03*
Y72362D02*
D03*
Y82362D02*
D03*
Y92362D02*
D03*
Y102362D02*
D03*
Y112362D02*
D03*
Y122362D02*
D03*
Y132362D02*
D03*
Y142362D02*
D03*
D29*
Y152362D02*
D03*
D30*
X227283Y110236D02*
D03*
X386890Y66929D02*
D03*
X526496Y110236D02*
D03*
X686102Y66929D02*
D03*
X825709Y110236D02*
D03*
X985315Y66929D02*
D03*
X1122953Y110236D02*
D03*
X1284528Y66929D02*
D03*
X237283D02*
D03*
X376890Y110236D02*
D03*
X536496Y66929D02*
D03*
X676102Y110236D02*
D03*
X835709Y66929D02*
D03*
X975315Y110236D02*
D03*
X1132953Y66929D02*
D03*
X1274528Y110236D02*
D03*
D31*
X232283D02*
D03*
X237283D02*
D03*
X376890Y66929D02*
D03*
X381890D02*
D03*
X531496Y110236D02*
D03*
X536496D02*
D03*
X676102Y66929D02*
D03*
X681102D02*
D03*
X830709Y110236D02*
D03*
X835709D02*
D03*
X975315Y66929D02*
D03*
X980315D02*
D03*
X1127953Y110236D02*
D03*
X1132953D02*
D03*
X1274528Y66929D02*
D03*
X1279528D02*
D03*
X232283D02*
D03*
X227283D02*
D03*
X386890Y110236D02*
D03*
X381890D02*
D03*
X531496Y66929D02*
D03*
X526496D02*
D03*
X686102Y110236D02*
D03*
X681102D02*
D03*
X830709Y66929D02*
D03*
X825709D02*
D03*
X985315Y110236D02*
D03*
X980315D02*
D03*
X1127953Y66929D02*
D03*
X1122953D02*
D03*
X1284528Y110236D02*
D03*
X1279528D02*
D03*
D32*
X143701Y64961D02*
D03*
Y104331D02*
D03*
D33*
X129921Y149606D02*
D03*
X1381890D02*
D03*
Y27559D02*
D03*
X129921D02*
D03*
D34*
X73000Y69100D02*
D03*
X375100Y52200D02*
D03*
X427900Y92800D02*
D03*
X653600Y88600D02*
D03*
X171200Y97800D02*
D03*
X223300Y76000D02*
D03*
X695500Y118800D02*
D03*
X104100Y75300D02*
D03*
X191100Y94600D02*
D03*
M02*
